<svg version="1.1" xmlns="http://www.w3.org/2000/svg" viewBox="0 0 89 32">
	<path d="M58.165 16.527l-2.705-16.527h-5.735l0.703 5.275c-1.65-4.572-4.923-5.166-4.923-5.166h-9.494v28.619l-4.463-28.727h-7.142l-4.572 28.727v-28.727h-7.033l-2.949 13.363-2.57-13.363h-7.277v31.893l5.87-0.109v-11.496l2.57 11.605h2.921l2.84-11.74v11.712h10.794l0.947-3.056h4.328l0.595 3.056h11.361v-10.658l3.977 10.658h5.626l-4.112-12.199c3.165-2.57 3.761-8.196 3.761-8.196l3.408 20.396h6.438l5.384-30.728v30.728h10.441v-6.438h-4.679v-6.086h4.463v-6.682h-4.572v-6.573h4.815v-5.978h-16.176l-2.84 16.42zM26.623 22.613l1.407-9.738 1.649 9.738h-3.056zM42.096 15.229v-9.494c0 0 2.921-0.244 3.517 4.463 0 0 0.351 4.815-3.517 5.031z"></path>
	<path d="M84.674 25.562v-25.562h-5.41v32h9.982v-6.438z"></path>
</svg>
