<svg version="1.1" xmlns="http://www.w3.org/2000/svg" viewBox="0 0 32 32" fill="currentColor">
	<path d="M12.294 0c-1.853 7.273-4.447 9.091-10.746 11.273v5.091l13.34 15.636v-4.727c5.558-1.818 8.893-5.818 11.117-10.545l-13.71-16.727zM15.259 32c7.041-1.818 11.858-3.636 14.081-4.727v-3.989c-3.428 2.681-9.962 6.439-14.081 7.989v0.727zM16 1.818l-0.695 0.682 11.279 13.761c0.171 0.21 0.209 0.517 0.093 0.761-2.258 4.8-5.712 9.065-11.418 10.977l0.012 0.818c5.929-1.455 10.364-6.636 14.44-11.364l-13.71-15.636zM13.221 5.33l2.964 3.273c0.188 0.21 0.235 0.53 0.116 0.784-1.534 3.387-3.56 5.389-6.635 6.898-0.291 0.144-0.677 0.070-0.892-0.17l-3.335-3.636c-0.331-0.365-0.131-1.046 0.347-1.182 3.584-1.055 4.751-2.207 6.195-5.75 0.431-0.552 0.695-0.568 1.239-0.216zM12.839 7.102c-1.264 2.637-2.872 4.175-5.581 5.182l2.223 2.42c2.409-1.275 3.963-2.822 5.257-5.5l-1.899-2.102zM28.703 19.739c-3.43 3.905-8.522 8.489-13.444 10.080v0.727c5.558-1.455 10.746-5.455 15.193-9.091l-1.749-1.716z"></path>
</svg>
