<svg version="1.1" xmlns="http://www.w3.org/2000/svg" viewBox="0 0 32 32" fill="currentColor">
	<path d="M15.78 6.427c1.775 0 3.213-1.439 3.213-3.213s-1.439-3.213-3.213-3.213c-1.775 0-3.213 1.439-3.213 3.213s1.439 3.213 3.213 3.213z"></path>
	<path d="M11.44 17.827c-0.723 0.268-1.533 0.147-2.147-0.32-0.424-0.323-0.827-0.673-1.207-1.047l-2.753 8.873c0 0 1.413 0.16 3.513 0.353l2.593-7.86z"></path>
	<path d="M19.12 17.567c-0.020-0.064-0.045-0.126-0.073-0.187 0.433-2.4 0.913-4.827 1.433-7.24 0.913 0.58 1.467 1.227 1.513 1.793 0.067 0.713-0.62 1.653-1.933 2.667-0.492 0.37-0.691 1.013-0.494 1.596s0.745 0.974 1.361 0.97c0.313 0.001 0.618-0.103 0.867-0.293 2.18-1.667 3.207-3.407 3.053-5.18-0.135-1.155-0.696-2.217-1.573-2.98-0.649-0.596-1.378-1.099-2.167-1.493-0.128-0.064-0.265-0.106-0.407-0.127-0.139-0.051-0.286-0.073-0.433-0.067h-8.973c-0.15-0.004-0.3 0.021-0.44 0.073-0.133 0.021-0.261 0.064-0.38 0.127-0.789 0.39-1.519 0.89-2.167 1.487-0.875 0.764-1.433 1.826-1.567 2.98-0.16 1.773 0.867 3.513 3.047 5.18 0.627 0.475 1.519 0.356 2-0.267 0.473-0.629 0.351-1.521-0.273-2-1.333-1-2-1.94-1.933-2.667 0.047-0.56 0.593-1.207 1.5-1.787 0.507 2.373 0.98 4.76 1.413 7.12-0.033 0.067-0.062 0.136-0.087 0.207l-3.96 12c-0.154 0.464-0.116 0.97 0.104 1.407s0.605 0.767 1.069 0.92c0.187 0.063 0.383 0.095 0.58 0.093 0.789 0.006 1.496-0.489 1.76-1.233l3.793-11.533 3.827 11.6c0.248 0.757 0.956 1.269 1.753 1.267 0.197-0.002 0.392-0.033 0.58-0.093 0.465-0.152 0.849-0.483 1.069-0.92s0.258-0.943 0.104-1.407l-3.967-12.013zM17.333 13.66l-1.54-0.793-1.513 0.793 0.287-1.66-1.233-1.213 1.687-0.247 0.76-1.533 0.753 1.533 1.687 0.247-1.207 1.213 0.32 1.66z"></path>
	<path d="M14.313 26.093c0.969 0.053 1.942 0.093 2.92 0.12l-1.48-4.487-1.44 4.367z"></path>
	<path d="M22.287 17.507c-0.383 0.293-0.851 0.455-1.333 0.46-0.3 0.001-0.597-0.058-0.873-0.173l2.72 8.34c1.326-0.038 2.635-0.309 3.867-0.8l-3-9.047c-0.431 0.438-0.892 0.846-1.38 1.22v0z"></path>
</svg>
