<svg version="1.1" xmlns="http://www.w3.org/2000/svg" viewBox="0 0 32 32" fill="currentColor">
	<path d="M31.468 28.971l-7.848-7.857c3.946-5.136 3.551-12.554-1.184-17.251-2.587-2.59-5.919-3.863-9.295-3.863s-6.708 1.273-9.295 3.863c-5.13 5.136-5.13 13.476 0 18.612 2.587 2.59 5.919 3.863 9.295 3.863 2.806 0 5.612-0.878 7.936-2.678l7.892 7.813c0.351 0.351 0.789 0.527 1.271 0.527 0.438 0 0.921-0.176 1.271-0.527 0.658-0.658 0.658-1.8-0.044-2.502zM12.884 22.222c-2.516 0-4.819-0.98-6.61-2.728-3.625-3.623-3.625-9.546 0-13.212 1.748-1.747 4.094-2.728 6.61-2.728s4.819 0.98 6.61 2.728c1.791 1.747 2.729 4.091 2.729 6.606s-0.981 4.816-2.729 6.606c-1.748 1.79-4.136 2.728-6.61 2.728z"></path>
</svg>
