<svg version="1.1" xmlns="http://www.w3.org/2000/svg" viewBox="0 0 32 32" fill="currentColor">
	<path d="M29.456 3.733h-26.912c-0.675 0-1.322 0.276-1.799 0.767s-0.745 1.157-0.745 1.851v19.297c0 1.446 1.139 2.618 2.544 2.618h26.912c1.405 0 2.544-1.172 2.544-2.618v-19.297c0-1.446-1.139-2.618-2.544-2.618zM5.328 23.588c0 0.228-0.182 0.412-0.406 0.412h-3.448c-0.224 0-0.406-0.185-0.406-0.412v-2.376c0-0.228 0.182-0.412 0.406-0.412h3.454c0.224 0 0.406 0.185 0.406 0.412l-0.006 2.376zM5.328 17.188c0 0.228-0.182 0.412-0.406 0.412h-3.448c-0.224 0-0.406-0.185-0.406-0.412v-2.376c0-0.228 0.182-0.412 0.406-0.412h3.454c0.224 0 0.406 0.185 0.406 0.412l-0.006 2.376zM5.328 10.787c0 0.228-0.182 0.413-0.406 0.413h-3.448c-0.224 0-0.406-0.185-0.406-0.413v-2.386c0.006-0.224 0.186-0.402 0.406-0.401h3.454c0.224 0 0.406 0.185 0.406 0.413l-0.006 2.374zM19.808 17.407l-6.648 4.313c-0.291 0.19-0.654 0.195-0.949 0.014s-0.478-0.52-0.477-0.888v-8.627c-0.001-0.367 0.182-0.707 0.477-0.888s0.659-0.176 0.949 0.014l6.648 4.313c0.285 0.184 0.459 0.515 0.459 0.874s-0.174 0.69-0.459 0.874zM30.933 23.588c0 0.228-0.182 0.412-0.407 0.412h-3.453c-0.225 0-0.407-0.185-0.407-0.412v-2.376c0-0.228 0.182-0.412 0.407-0.412h3.453c0.225 0 0.407 0.185 0.407 0.412v2.376zM30.933 17.188c0 0.228-0.182 0.412-0.407 0.412h-3.453c-0.225 0-0.407-0.185-0.407-0.412v-2.376c0-0.228 0.182-0.412 0.407-0.412h3.453c0.225 0 0.407 0.185 0.407 0.412v2.376zM30.933 10.789c0 0.227-0.182 0.411-0.407 0.411h-3.453c-0.225 0-0.407-0.184-0.407-0.411v-2.377c0-0.227 0.182-0.411 0.407-0.411h3.453c0.225 0 0.407 0.184 0.407 0.411v2.377z"></path>
</svg>
